HIERARCHY
ROOT Hips
{
  OFFSET -187.679 86.5976 -156.378
  CHANNELS 6 Xposition Yposition Zposition Zrotation Xrotation Yrotation
  JOINT LeftUpLeg
  {
    OFFSET 8.64259 1.95398 -2.38835
    CHANNELS 3 Zrotation Xrotation Yrotation
    JOINT LeftLeg
    {
      OFFSET 43.7702 0 0
      CHANNELS 3 Zrotation Xrotation Yrotation
      JOINT LeftFoot
      {
        OFFSET 40.6238 0 0
        CHANNELS 3 Zrotation Xrotation Yrotation
        JOINT LeftToeBase
        {
          OFFSET 12.7242 0 0
          CHANNELS 3 Zrotation Xrotation Yrotation
          End Site
          {
            OFFSET 0 0 0
          }
        }
      }
    }
  }
  JOINT RightUpLeg
  {
    OFFSET -8.2249 1.95398 -2.59336
    CHANNELS 3 Zrotation Xrotation Yrotation
    JOINT RightLeg
    {
      OFFSET 43.5653 0 0
      CHANNELS 3 Zrotation Xrotation Yrotation
      JOINT RightFoot
      {
        OFFSET 40.6238 0 0
        CHANNELS 3 Zrotation Xrotation Yrotation
        JOINT RightToeBase
        {
          OFFSET 12.7242 0 0
          CHANNELS 3 Zrotation Xrotation Yrotation
          End Site
          {
            OFFSET 0 0 0
          }
        }
      }
    }
  }
  JOINT Spine
  {
    OFFSET 0.165834 0.87714 6.61349
    CHANNELS 3 Zrotation Xrotation Yrotation
    JOINT Spine1
    {
      OFFSET 7.38963 1.71661e-005 0
      CHANNELS 3 Zrotation Xrotation Yrotation
      JOINT Spine2
      {
        OFFSET 11.9445 1.14441e-005 0
        CHANNELS 3 Zrotation Xrotation Yrotation
        JOINT Spine3
        {
          OFFSET 14.7254 4.19617e-005 0
          CHANNELS 3 Zrotation Xrotation Yrotation
          JOINT Spine4
          {
            OFFSET 10.9679 0 0
            CHANNELS 3 Zrotation Xrotation Yrotation
            JOINT RightShoulder
            {
              OFFSET 2.46616 -1.6653 3.69651
              CHANNELS 3 Zrotation Xrotation Yrotation
              JOINT RightArm
              {
                OFFSET 13.0012 0 0
                CHANNELS 3 Zrotation Xrotation Yrotation
                JOINT RightForeArm
                {
                  OFFSET 28.7848 1.52588e-005 0
                  CHANNELS 3 Zrotation Xrotation Yrotation
                  JOINT RightHand
                  {
                    OFFSET 26.5688 1.52588e-005 0
                    CHANNELS 3 Zrotation Xrotation Yrotation
                    End Site
                    {
                      OFFSET 0 0 0
                    }
                  }
                }
              }
            }
            JOINT LeftShoulder
            {
              OFFSET 2.38034 -1.29275 -3.7523
              CHANNELS 3 Zrotation Xrotation Yrotation
              JOINT LeftArm
              {
                OFFSET 16.3182 6.10352e-005 0
                CHANNELS 3 Zrotation Xrotation Yrotation
                JOINT LeftForeArm
                {
                  OFFSET 27.0901 0 0
                  CHANNELS 3 Zrotation Xrotation Yrotation
                  JOINT LeftHand
                  {
                    OFFSET 24.5451 1.52588e-005 0
                    CHANNELS 3 Zrotation Xrotation Yrotation
                    End Site
                    {
                      OFFSET 0 0 0
                    }
                  }
                }
              }
            }
            JOINT Neck
            {
              OFFSET 5.0226 -0.0266342 0
              CHANNELS 3 Zrotation Xrotation Yrotation
              JOINT Head
              {
                OFFSET 6.69363 2.86102e-005 0
                CHANNELS 3 Zrotation Xrotation Yrotation
                End Site
                {
                  OFFSET 0 0 0
                }
              }
            }
          }
        }
      }
    }
  }
}
MOTION
Frames:	10
Frame Time:	0.0416667
36.043 29.5165 35.7868 -3.80469 -15.8398 -1.63688 -174.999 3.47104 89.8011 -34.2089 38.5651 11.8279 83.7428 14.4854 5.35634 6.12208 8.80529 -33.7603 175.289 -7.77562 91.2757 -8.50964 -3.10633 0.593627 85.9864 -10.4774 1.28071 47.7135 2.34067 3.95424 0.741078 7.61148 -89.9182 11.6522 1.51247 0.0043624 -0.0178525 1.5112 -0.062233 -22.5596 1.44121 0.458821 -2.54697 1.44122 0.45882 98.5987 -26.4828 -89.7428 -12.4956 -9.07179 -33.5721 -57.4816 16.0329 -87.6292 -25.3755 -9.68309 37.1255 -82.7725 -24.061 86.4364 30.7791 55.0349 -47.7479 35.8559 23.3137 -45.2656 -29.8983 19.8797 -75.5808 27.8557 -0.808332 -3.12345 11.8846 0.735314 2.49828 
36.1385 25.1182 36.486 -2.63381 -15.5329 -1.67415 -174.675 1.44719 90.1564 -36.4783 42.7195 13.334 85.0598 15.8322 6.14818 0.766018 6.73224 -30.6361 176.471 -10.4516 91.5717 -8.5552 -1.37374 -0.836106 88.7715 -12.1741 -0.400544 45.9351 1.52312 7.9644 0.669835 7.40194 -89.901 12.0705 1.37845 0.0463365 0.40028 1.37915 -0.0144095 -22.1403 1.30078 0.458535 -2.12762 1.30078 0.458543 99.2312 -27.0916 -88.306 -9.98619 -6.17742 -27.3851 -59.1833 23.306 -98.8586 -34.7006 -16.4527 45.5276 -82.4032 -24.2029 87.2486 20.156 54.5311 -36.7213 42.8387 25.4302 -53.892 -31.0524 20.2948 -74.4018 33.8631 -1.51727 -3.87111 10.9209 0.681845 3.6935 
36.1125 21.6357 37.3415 -4.41447 -15.7827 -1.73453 -173.387 0.582659 91.1704 -40.351 44.7634 12.7795 84.07 16.449 7.45089 -2.05516 7.97749 -33.1649 176.556 -12.9436 91.3973 -8.54177 -1.68268 -1.07432 88.5117 -12.0219 1.01621 47.4096 1.82854 8.06957 0.773743 7.23515 -90.0091 12.4059 1.53321 -0.193348 0.735858 1.52321 -0.260673 -21.8064 1.52041 0.276476 -1.79381 1.52042 0.27649 99.2626 -26.9108 -88.2585 -10.7258 -8.72785 -22.767 -57.4949 28.5496 -103.183 -31.8453 -15.1029 45.9157 -82.5522 -26.0327 87.2438 11.7004 56.5091 -23.4502 52.2927 23.9951 -63.7259 -31.3599 21.1199 -75.7833 38.4259 -1.17751 -3.63923 9.05119 0.916156 3.01407 
36.2085 18.7384 38.336 -4.25625 -16.0438 -1.77781 -173.112 -1.6311 91.4848 -40.1038 45.638 13.2295 83.7491 16.9342 9.20327 -14.0576 6.96968 -32.6402 176.425 -15.2086 90.7705 -8.5448 -3.14401 -1.50351 88.3419 -12.099 0.881216 45.6382 1.61446 6.80833 0.693118 7.16756 -89.9982 12.5406 1.37788 -0.156263 0.870405 1.36967 -0.216787 -21.6705 1.36113 0.265153 -1.65787 1.36113 0.265144 99.7327 -26.1551 -87.3273 -11.0662 -16.0029 -20.6638 -58.7035 32.3361 -102.568 -17.718 -6.82595 36.5716 -82.4867 -25.8336 87.349 3.86526 57.1458 -13.3273 51.4101 18.1642 -66.9828 -35.1484 20.637 -67.9965 42.7141 -1.64577 -3.76973 7.69904 0.540017 1.8318 
36.1726 16.7416 39.2893 -3.7817 -15.2639 -1.05513 -172.89 -3.32903 91.5978 -37.7059 44.0901 13.112 85.3421 16.3057 6.7764 -6.44703 6.38462 -30.8787 176.263 -15.8031 90.9451 -8.57415 -4.49034 -1.25448 86.7998 -11.4513 0.662138 43.9293 1.05371 8.12472 0.67726 7.00582 -90.0268 12.8644 1.33205 -0.213434 1.19407 1.32136 -0.27188 -21.3465 1.33461 0.196847 -1.33388 1.33459 0.196834 99.0416 -27.1023 -88.7062 -9.75257 -13.6248 -14.1318 -62.2489 38.1278 -107.564 -31.3014 -16.9776 47.2902 -82.357 -25.9231 87.6287 -2.39603 54.2924 -6.80645 56.5768 19.5799 -72.5274 -35.5811 21.0138 -68.1412 45.7777 -2.37033 -4.89637 7.01486 0.644676 2.80878 
36.0705 15.3477 40.0762 -3.53791 -14.7375 -1.05944 -173.004 -3.47297 91.4296 -38.3616 44.7478 13.76 84.0841 15.8345 7.49908 -0.486099 6.08551 -29.7362 175.878 -16.1312 90.3415 -8.60554 -6.3874 -1.29689 86.9803 -11.4589 0.487925 41.6474 0.643128 7.64083 0.65408 6.87987 -89.9924 13.1159 1.30197 -0.145758 1.44554 1.2943 -0.202957 -21.0947 1.28558 0.252327 -1.08209 1.28557 0.252322 98.6423 -28.2105 -89.4173 -9.28119 -14.1109 -10.0024 -62.2762 41.18 -109.827 -30.8544 -16.0679 50.1889 -82.8791 -27.0032 86.7349 -7.22399 51.4797 0.130775 58.9435 18.3702 -76.1622 -37.1349 21.2612 -66.2807 46.6773 -2.56485 -4.42616 6.4552 0.203525 2.38221 
35.8733 14.2635 40.5993 -3.71252 -14.2004 -0.889206 -172.899 -4.11194 91.6734 -36.1841 41.5535 12.6485 85.5901 14.8952 3.91053 -17.3009 5.95154 -31.6127 176.064 -16.3101 90.6076 -8.63664 -6.84892 -1.41121 85.8123 -10.9924 0.207699 40.7092 -0.125207 10.8451 0.66319 6.80545 -89.9716 13.2646 1.32983 -0.110024 1.59428 1.32369 -0.168456 -20.9462 1.3014 0.294792 -0.933513 1.3014 0.294797 99.4263 -26.5702 -87.9444 -4.59885 -19.248 -9.91548 -66.1375 44.0158 -106.021 -25.2565 -12.1763 47.0692 -82.5947 -25.8658 87.1277 -11.7804 48.3036 3.53166 60.422 18.8665 -78.7761 -37.2915 20.5529 -64.3138 47.2021 -2.85666 -4.65874 6.90208 0.115061 2.666 
35.6976 13.2844 41.0291 -4.02378 -13.7354 -0.739454 -172.85 -4.51039 91.4441 -35.3509 39.7081 12.0169 84.4655 14.6313 5.00365 -1.86676 3.4134 -25.8405 176.281 -16.6035 90.8201 -8.63572 -6.62554 -1.47363 85.7767 -10.7626 1.22417 39.4316 -0.162987 9.30862 0.686068 6.75007 -90.0154 13.3759 1.35377 -0.20286 1.70565 1.34352 -0.262267 -20.8351 1.35214 0.213455 -0.822441 1.35214 0.213448 98.9393 -27.8131 -88.844 -4.01315 -16.8467 -6.16552 -63.4493 46.1535 -110.705 -26.9972 -13.1767 47.3175 -83.0917 -26.047 86.1297 -15.6974 45.4308 8.42754 64.8741 18.0937 -82.4582 -37.7215 21.3601 -65.6182 47.736 -2.40627 -4.4036 6.54951 0.38033 2.33182 
35.6652 12.0918 41.3423 -3.23365 -13.5019 -0.595842 -173.284 -5.23334 90.7404 -35.5184 38.9661 12.7003 83.4394 14.6226 6.56253 -6.06241 0.251021 -21.9598 176.036 -17.186 90.7819 -8.64013 -6.52884 -1.37549 85.829 -10.7444 1.07428 39.3356 -0.343117 10.1872 0.619108 6.71651 -90.0331 13.4428 1.21222 -0.221428 1.77237 1.2013 -0.27458 -20.7673 1.22272 0.153187 -0.754632 1.22272 0.153176 99.2079 -27.3116 -88.3309 -2.23662 -16.0753 -4.20253 -66.6581 49.503 -110.175 -25.4411 -12.6191 48.3008 -82.9542 -26.6805 86.5251 -16.8847 45.5489 11.3387 66.5187 15.2924 -83.9432 -38.6656 22.0179 -65.7671 48.2622 -2.32646 -4.15056 6.34393 0.33035 2.31879 
35.5215 10.8187 41.5219 -2.91157 -13.5058 -0.636099 -173.341 -6.26733 90.631 -34.7421 37.2408 12.5676 84.2452 14.2348 4.88982 -8.85706 -2.38964 -19.0401 176.134 -17.8923 90.7787 -8.64568 -7.02078 -1.48015 84.0232 -10.2025 0.889401 41.9944 0.655747 8.0176 0.617753 6.682 -90.0873 13.5124 1.18313 -0.327326 1.84194 1.16757 -0.379087 -20.6975 1.22679 0.0434425 -0.684897 1.22679 0.0434348 99.0079 -28.2962 -88.6392 -5.10374 -14.1293 -1.71184 -62.7844 50.0205 -114.223 -20.4093 -10.5565 50.7875 -83.191 -25.5625 85.8354 -20.6069 45.5647 14.1422 65.626 13.2697 -83.8906 -39.5417 21.7086 -63.7634 48.0027 -1.81559 -3.22582 6.62392 0.23652 1.68526 
